<svg width="44" height="44" viewBox="0 0 44 44" fill="none" xmlns="http://www.w3.org/2000/svg" xmlns:xlink="http://www.w3.org/1999/xlink">
<g>
<path d="M35.0631 20.0376H21.7056L10.0195 31.7265L16.6969 38.4038L35.0631 20.0376Z" fill="#54C5F8"/>
<path d="M6.68014 28.3864L0 21.7063L21.7063 0H35.0638L6.68014 28.3864Z" fill="#54C5F8"/>
<path d="M16.6975 38.4039L21.7062 43.4126H35.0637L23.3749 31.7266L16.6975 38.4039Z" fill="#01579B"/>
<path d="M16.6975 38.4039L26.6035 34.9747L23.3749 31.7266L16.6975 38.4039Z" fill="url(#paint0_linear)"/>
<path d="M16.6966 25.0456L10.019 31.7231L16.6966 38.4007L23.3741 31.7231L16.6966 25.0456Z" fill="#29B6F6"/>
<path d="M35.0638 20.0376L23.3777 31.7237L35.0638 43.4126H21.7063L16.6976 38.4039L10.0174 31.7237L21.7063 20.0376H35.0638ZM21.7063 0L0 21.7063L6.68014 28.3864L35.0638 0H21.7063Z" fill="#02569B" opacity="0.2"/>
</g>
<defs>
<linearGradient id="paint0_linear" x1="18.6447" y1="39.6934" x2="23.6192" y2="34.7189" gradientUnits="userSpaceOnUse">
<stop stop-color="#1A237E" stop-opacity="0.4"/>
<stop offset="1" stop-color="#1A237E" stop-opacity="0"/>
</linearGradient>
</defs>
</svg>
